# xmcd CD database file
#
# Track frame offsets:
#	150
#	25276
#	53511
#	86273
#	110576
#	151254
#	179515
#	208263
#
# Disc length: 3225 seconds
#
# Revision: 0
# Processed by: cddbd v1.5.2PL0 Copyright (c) Steve Scherf et al.
# Submitted via: CDex 1.51
#
DISCID=610c9708
DTITLE=Enrique Arron - The Pleasure of Making LOVE (Subliminal)
DYEAR=2003
DGENRE=New Age
TTITLE0=Caresses
TTITLE1=Astral tango
TTITLE2=Pursuits
TTITLE3=Sun and Moon
TTITLE4=Romance
TTITLE5=Whispers
TTITLE6=Plentitude
TTITLE7=Ecstasy
EXTD=YEAR: 2003
EXTT0=
EXTT1=
EXTT2=
EXTT3=
EXTT4=
EXTT5=
EXTT6=
EXTT7=
PLAYORDER=
